<svg version="1" xmlns="http://www.w3.org/2000/svg" width="933.333" height="933.333" viewBox="0 0 700.000000 700.000000"><path d="M128.3 204.2c-6.7 6.2-13.9 17.7-16.9 27.2-3.3 10.2-3.7 24.6-1 34.6 5.6 20.4 21 37.1 40.9 44.2 5.2 1.9 8.3 2.2 19.2 2.2 11.4 0 13.8-.3 19.5-2.5l6.5-2.4 3.5 3.2c1.9 1.7 21.1 16 42.7 31.7 51 37 80.1 58.5 80.8 59.5.2.5-4.8 4.5-11.2 9l-11.8 8.1h-37.3l-4.7-7c-10-15.1-25-23.7-43-24.7-11.1-.6-20 1.3-29.6 6.3-7.8 4.1-17.1 12.9-21.4 20.3l-3 5.1H111v46h49.8l3 5.3c14.7 26.1 47 35.5 74.4 21.6 7.6-3.8 17.5-13.3 21.8-20.8l3.5-6h180l3 6.2c5.9 12 19.6 23 34 27.3 8.6 2.6 22.1 2.4 31-.4 13.6-4.1 26.4-14.7 32.7-26.8l3.3-6.4H592v-46h-47l-2.6-4.1c-5.9-9.5-15.9-17.8-26-21.7l-4.9-2-.5-57.3-.5-57.4h-31l-.5 5.2c-.4 3.5-1.2 6-2.5 7.2-1.1 1-29.4 21.7-63 46.1-33.5 24.4-61.4 44.6-62 45-.5.4-9.5-5.5-20-13.2-10.4-7.7-39.5-28.8-64.5-47s-45.6-33.2-45.8-33.3c-.1-.1 1.3-2.8 3.3-6 1.9-3.3 3.5-6.7 3.5-7.6 0-1-2.6-3.8-5.7-6.2-3.2-2.4-24.1-18.4-46.5-35.5C153.4 214 134.6 200 134 200c-.6 0-3.1 1.9-5.7 4.2zM480 359.5c0 29.2-.1 31.6-1.7 32.1-8.4 2.8-15.4 7.3-23 15l-8.2 8.4h-28.3l-28.3-.1-7.3-6.9-7.2-6.8 41.7-29.8c23-16.3 46.1-32.8 51.3-36.5 5.2-3.8 9.8-6.9 10.3-6.9.4 0 .7 14.2.7 31.5zm-260.2 66.9c9.1 4.8 12.8 15.7 8.2 24.5-6.6 13.1-25.5 13-31.9-.1-2.5-5.2-2.7-9.5-.6-14.6 2-4.6 5.1-8.1 9-9.8 4-1.8 11.9-1.8 15.3 0zm284.9 3.1c5.4 3.2 8.3 8.6 8.3 15.5 0 5.9-1.7 9.7-5.9 13.3-4.3 3.6-9.4 5-14.9 4.2-8.8-1.3-16.4-12.2-14.7-20.8 2.6-12.3 16.4-18.5 27.2-12.2z"/></svg>